#!OML:ASF F:\VICON\USERDATA\INSTALL\rory3\rory3.ASF
:FULLY-SPECIFIED
:DEGREES
129
root -0.108543 17.9822 -0.71558 3.00175 -10.4465 1.42694
lowerback -0.464557 -1.79817 -4.45829
upperback -1.09643 -2.39084 2.51051
thorax -0.578785 -1.15889 5.09145
lowerneck -23.4864 0.251798 -9.84883
upperneck 16.5427 2.43827 5.62716
head 8.82947 1.14812 3.8885
rclavicle 6.04927e-014 7.95139e-016
rhumerus -32.5719 -1.0645 -80.7288
rradius 31.5961
rwrist 19.635
rhand -17.9009 8.4616
rfingers 7.12502
rthumb 8.36601 -21.3527
lclavicle 6.04927e-014 7.95139e-016
lhumerus 33.4928 -11.1622 54.0741
lradius 105.493
lwrist -8.82653
lhand -41.1379 26.2598
lfingers 7.12502
lthumb -14.0646 55.7639
rfemur -8.75446 9.2421 14.9735
rtibia 25.6517
rfoot -16.7776 -3.72064
rtoes 4.9609
lfemur 0.606158 -2.204 -21.8486
ltibia 11.4909
lfoot -10.4727 6.41677
ltoes -12.8581
130
root -0.107292 17.9816 -0.709343 3.00996 -10.4996 1.46872
lowerback -0.527819 -1.78725 -4.44212
upperback -1.0425 -2.37366 2.46503
thorax -0.492283 -1.15405 5.03155
lowerneck -23.6122 0.258794 -9.66575
upperneck 16.0136 2.42877 5.50378
head 8.67339 1.15579 3.80175
rclavicle -1.67725e-014 -2.62396e-014
rhumerus -32.4612 -1.01725 -80.7976
rradius 31.5623
rwrist 19.5133
rhand -17.9417 8.33533
rfingers 7.12502
rthumb 8.32658 -21.4806
lclavicle -1.67725e-014 -2.62396e-014
lhumerus 34.0702 -10.727 53.7737
lradius 105.352
lwrist -9.03267
lhand -41.3843 26.1075
lfingers 7.12502
lthumb -14.302 55.5949
rfemur -8.76946 9.21672 14.9116
rtibia 25.6606
rfoot -16.7561 -3.71374
rtoes 4.62908
lfemur 0.653144 -2.18544 -21.9125
ltibia 11.4216
lfoot -10.4718 6.47355
ltoes -12.8719
131
root -0.10629 17.9811 -0.703215 3.04516 -10.5275 1.52672
lowerback -0.577469 -1.79095 -4.47408
upperback -1.02085 -2.3766 2.44885
thorax -0.441191 -1.15727 5.03054
lowerneck -23.8468 0.265152 -9.51156
upperneck 15.5688 2.43647 5.38611
head 8.56311 1.16846 3.72891
rclavicle -6.1499e-015 1.59028e-015
rhumerus -32.3429 -0.962058 -80.8086
rradius 31.4485
rwrist 19.5325
rhand -18.0219 8.16336
rfingers 7.12502
rthumb 8.24917 -21.6556
lclavicle -6.1499e-015 1.59028e-015
lhumerus 34.6069 -10.2499 53.5841
lradius 105.231
lwrist -9.39039
lhand -41.5232 25.9657
lfingers 7.12502
lthumb -14.4358 55.4437
rfemur -8.8179 9.21585 14.8349
rtibia 25.6819
rfoot -16.776 -3.7364
rtoes 4.17277
lfemur 0.634409 -2.18738 -21.9905
ltibia 11.3649
lfoot -10.4394 6.52625
ltoes -12.8362
132
root -0.105996 17.9796 -0.699104 3.08782 -10.513 1.5185
lowerback -0.629525 -1.79657 -4.44455
upperback -0.979709 -2.38193 2.45105
thorax -0.370007 -1.16299 5.01326
lowerneck -23.9832 0.238507 -9.51111
upperneck 15.0028 2.40643 5.43749
head 8.39359 1.17508 3.72999
rclavicle 2.86747e-014 3.18055e-015
rhumerus -32.2406 -0.891227 -80.8307
rradius 31.3983
rwrist 19.4675
rhand -18.054 8.08444
rfingers 7.12502
rthumb 8.21819 -21.7357
lclavicle 2.86747e-014 3.18055e-015
lhumerus 35.2076 -9.78857 53.3927
lradius 105.179
lwrist -9.6954
lhand -41.4747 25.8891
lfingers 7.12502
lthumb -14.389 55.3703
rfemur -8.85928 9.19497 14.8345
rtibia 25.7045
rfoot -16.7905 -3.7102
rtoes 3.96373
lfemur 0.594235 -2.17897 -21.989
ltibia 11.329
lfoot -10.4201 6.52083
ltoes -12.935
133
root -0.106836 17.9806 -0.696389 3.125 -10.5106 1.48448
lowerback -0.503405 -1.78807 -4.43506
upperback -1.06186 -2.37576 2.48523
thorax -0.525117 -1.15378 5.04988
lowerneck -24.0892 0.210418 -9.58245
upperneck 14.6561 2.37605 5.58173
head 8.29221 1.18188 3.78024
rclavicle 1.39025e-014 -1.03368e-014
rhumerus -32.3802 -0.787288 -80.7879
rradius 31.4229
rwrist 19.4175
rhand -17.9893 8.04243
rfingers 7.12502
rthumb 8.2807 -21.7753
lclavicle 1.39025e-014 -1.03368e-014
lhumerus 35.6073 -9.46468 53.2486
lradius 105.212
lwrist -9.77516
lhand -41.4711 25.8041
lfingers 7.12502
lthumb -14.3855 55.2856
rfemur -8.89053 9.19586 14.8694
rtibia 25.7314
rfoot -16.8275 -3.71165
rtoes 3.81141
lfemur 0.617597 -2.167 -21.9444
ltibia 11.2682
lfoot -10.422 6.46119
ltoes -12.9338
134
root -0.106587 17.9802 -0.689158 3.12231 -10.5443 1.52682
lowerback -0.482427 -1.75654 -4.45002
upperback -1.07867 -2.33455 2.46883
thorax -0.559269 -1.13171 5.0428
lowerneck -24.3471 0.175781 -9.63795
upperneck 14.3708 2.33957 5.76291
head 8.23715 1.19043 3.84437
rclavicle -4.02787e-014 -1.03368e-014
rhumerus -32.3938 -0.827436 -80.7264
rradius 31.3311
rwrist 19.4376
rhand -17.9011 8.13347
rfingers 7.12502
rthumb 8.36582 -21.6809
lclavicle -4.02787e-014 -1.03368e-014
lhumerus 36.035 -9.15661 53.0685
lradius 105.248
lwrist -9.75621
lhand -41.7454 25.745
lfingers 7.12502
lthumb -14.6498 55.2075
rfemur -8.87361 9.16694 14.8105
rtibia 25.7411
rfoot -16.8691 -3.60952
rtoes 3.69226
lfemur 0.690605 -2.2585 -22.0097
ltibia 11.2378
lfoot -10.449 6.55109
ltoes -12.7972
135
root -0.105577 17.9788 -0.680084 3.10487 -10.5566 1.63148
lowerback -0.480182 -1.75802 -4.52191
upperback -1.11616 -2.33695 2.44787
thorax -0.597026 -1.13057 5.06262
lowerneck -24.5117 0.178706 -9.68758
upperneck 14.0738 2.35374 5.89275
head 8.15931 1.21699 3.89423
rclavicle -1.40392e-014 -1.98785e-014
rhumerus -32.4239 -0.839385 -80.675
rradius 31.1766
rwrist 19.5455
rhand -17.8726 8.33534
rfingers 7.12502
rthumb 8.39332 -21.4779
lclavicle -1.40392e-014 -1.98785e-014
lhumerus 36.3711 -8.81832 52.826
lradius 105.252
lwrist -9.75806
lhand -41.8904 25.8172
lfingers 7.12502
lthumb -14.7896 55.2695
rfemur -8.84201 9.14212 14.6834
rtibia 25.7609
rfoot -16.9486 -3.53637
rtoes 3.56946
lfemur 0.756197 -2.34564 -22.1461
ltibia 11.1817
lfoot -10.4537 6.6341
ltoes -12.3405
